<svg xmlns="http://www.w3.org/2000/svg"  viewBox="0 0 48 48" width="48px" height="48px" baseProfile="basic"><linearGradient id="c3mb3frR4YtcWOj6J9AJla" x1="23.401" x2="33.686" y1="12.096" y2="42.848" gradientUnits="userSpaceOnUse"><stop offset="0" stop-color="#32bdef"/><stop offset="1" stop-color="#1ea2e4"/></linearGradient><path fill="url(#c3mb3frR4YtcWOj6J9AJla)" d="M17.652,44.613l1.736-0.723l-0.289,3.978L17.652,44.613z M17.671,7.752l-5.497,11.062	l2.446-1.859L17.671,7.752z M23.13,35.151l1.957,4.598l3.424,6.359l-2.25-7.435l7.239,1.37L23.13,35.151z M33.696,32.118	l9.098-2.837l-14.478,0.196L33.696,32.118z M33.794,24.586l-1.272,1.761L43,23l-14.88,0.803L33.794,24.586z M41.424,12.504	l-12.378,4.798l-5.035,3.566l7.141-2.348l-1.37,1.956L41.424,12.504z M21.076,17.346l15.946-6.456l-1.076,2.152l5.674-4.011	l2.42-4.672l-3.585,3.427L24.79,12.971L21.076,17.346z M24.304,10.107l8.636-6.882l-8.847,3.485l-6.468,7.751l7.461-7.094	L24.304,10.107z M7.919,35.249l2.543-2.446L7.527,33.39L7.919,35.249z M13.886,33.635l0.538,2.69l0.489-3.399l-2.568,0.367	L13.886,33.635z M13.592,26.2l-6.995,3.522l1.027,1.174L13.592,26.2z M26.135,26.833c-1.371-2.307-3.72-1.421-5.07,0.201	c0,0,0.514,1.716,0.533,1.726c0.783-1.402,1.849-2.011,2.446-1.924c2.33,0.596,1.5,5.413-2.201,6.903	c0.532,0.302,1.219,0.036,1.722-0.251C25.572,32.154,27.461,29.323,26.135,26.833z"/><linearGradient id="c3mb3frR4YtcWOj6J9AJlb" x1="21.462" x2="30.794" y1="13.694" y2="33.062" gradientUnits="userSpaceOnUse"><stop offset="0" stop-color="#636363"/><stop offset=".36" stop-color="#585858"/><stop offset=".987" stop-color="#3c3c3c"/><stop offset=".998" stop-color="#3b3b3b"/></linearGradient><path fill="url(#c3mb3frR4YtcWOj6J9AJlb)" d="M48,21	c-1.535,0.094-4.682,0.547-7.774,1.059c1.661-1.437,3.671-3.359,5.443-5.042c0.235-5.778,0.317-11.591,0.336-17.376	c-2.157,2.071-4.335,4.292-6.431,6.421c-1.231,0.47-2.45,0.972-3.676,1.455c-1.373,0.564-2.756,1.123-4.137,1.686	c1.467-2.518,2.477-5.937,3.947-8.335c-4.273,1.329-8.54,2.749-12.761,4.219c-1.112,1.33-2.234,2.65-3.35,3.976	c-0.014-1.703-0.034-3.407-0.078-5.11l-0.099-3.842c-2.918,6.291-5.783,12.693-8.265,19.174c-3.136,2.883-5.662,6.783-7.234,10.248	c0.17,0.177,1.101,1.147,1.743,1.817c-1.156,1.397-2.289,2.813-3.437,4.216l-0.968,1.185c1.525,0.412,3.122,0.808,4.674,1.183	c0.005,0.656,0.012,1.49,0.012,1.703c1.071,0.716,2.161,1.415,3.25,2.105c0.894,0.647,1.192,1.003,1.192,1.003	s1.267,2.579,2.18,4.47c3.554-1.598,6.978-3.065,9.978-4.37c-0.065-1.174-0.196-2.609-0.587-4.565	c-0.326,2.283-0.88,3.13-1.174,3.978c-2.576,0.815-5.283,1.89-7.326,2.413c-1.266-1.582-1.609-2.804-1.609-2.804	s-0.342-0.257-0.735-0.679l2.822-1.881l-1.125-5.087l-1.296-0.22l-1.361,2.258l-2.27,1.768c0.003-0.633,0.006-1.327,0.011-1.626	c-1.052-0.265-2.108-0.539-3.164-0.806c0.834-1.055,1.665-2.113,2.487-3.177l4.574-1.116v-3.907L7.64,30.716	c-0.417-0.401-0.971-0.933-1.42-1.363c1.653-1.463,4.454-3.789,4.454-3.789c-1.187,0.191-2.573,0.876-3.518,1.41	c3.493-5.945,9.518-11.226,9.518-11.226c-1.422,0.524-2.779,1.316-4.054,2.292c1.569-3.531,3.247-6.823,5.05-10.289	c-0.015,1.338-0.024,2.677-0.031,4.015l-0.014,2.695l1.761-2.062c1.598-1.872,3.138-3.792,4.707-5.689	c2.961-1.129,5.91-2.289,8.847-3.485c-1.111,2.254-2.195,4.523-3.227,6.822c-1.869,0.782-3.724,1.59-5.527,2.471	c-0.899,1.36-2.059,3.191-2.915,4.584c1.098-1.212,2.464-2.887,3.519-4.131c4.33-1.08,10.719-3.47,15.664-5.185	c0.19-0.064,0.201-0.07,0.343-0.221c1.077-1.072,2.163-2.136,3.242-3.206c0.035,3.996,0.118,7.991,0.27,11.985	c-2.444,2.045-4.871,4.112-7.236,6.261c-2.105,0.382-3.868,0.741-4.6,0.953C35.464,23.417,42.014,23.043,43,23	c-1.939,1.469-4.417,3.688-6.719,5.457c-2.253,0.289-4.477,0.612-6.596,0.971c4.153,0.151,8.767,0.042,13.059-0.106	c-1.692,1.629-3.588,3.498-5.08,4.978c-3.427,0.771-7.495,1.769-10.846,2.595l2.167,1.04c1.513,0.705,3.039,1.383,4.566,2.058	c-2.054,0.644-2.618,1.071-4.649,1.808c3.182-0.449,4.874-0.8,8.018-1.431c-1.653-0.961-3.343-1.901-5.033-2.824	c2.266-0.459,4.791-0.998,6.776-1.427c2.712-2.714,5.93-6.049,8.561-8.806c-2.453,0.202-5.033,0.452-7.625,0.745	C42.082,26.078,45.909,22.872,48,21z M11.147,36.961l0.636-1.37l0.587,2.277l-2.668,1.999c-0.364-0.253-0.729-0.504-1.095-0.754	L11.147,36.961z M29.046,17.302l-4.937,3.42c0,0,2.641-3.473,3.741-4.846c4.085-0.877,6.335-1.562,10.313-2.155	C33.696,15.488,29.046,17.302,29.046,17.302z M18.386,26.827c0.395-0.742,0.815-1.472,1.245-2.197	c-0.42-1.666-0.781-3.337-1.004-5.049c0.984,1.659,1.813,3.38,2.573,5.144l-0.129,0.336c-0.218,0.566-0.458,1.122-0.693,1.68	l-0.952,1.618c-0.203-0.105-0.411-0.207-0.609-0.314l-0.841-0.451L18.386,26.827z"/></svg>