<svg data-color="monochrome" xmlns="http://www.w3.org/2000/svg"  viewBox="0 0 48 48" width="48px" height="48px"><path d="M 23.986328 2.0820312 C 16.47852 2.0820313 12.472343 4.7544931 10.611328 7.6152344 C 8.7503131 10.475976 9.0117188 13.416016 9.0117188 13.416016 L 9.0058594 13.283203 L 9.0058594 21.009766 L 7.9804688 21.017578 C 7.4204687 21.021578 6.96875 21.475156 6.96875 22.035156 L 6.9628906 27.738281 C 6.9628906 28.010281 7.0696719 28.272844 7.2636719 28.464844 L 9.0058594 30.191406 L 9.0058594 34.412109 C 9.0058594 35.887264 9.7564829 37.154362 10.742188 38.019531 L 10.775391 38.048828 L 18.287109 43.896484 L 18.216797 43.839844 C 19.201803 44.705942 20.457795 44.96875 21.658203 44.96875 L 23.988281 44.96875 L 26.316406 44.96875 C 27.550863 44.96875 28.634295 44.530753 29.527344 44.005859 L 29.613281 43.957031 L 37.146484 38.089844 C 38.351232 37.181369 38.970703 35.761491 38.970703 34.412109 L 38.970703 30.113281 L 40.685547 28.412109 C 40.879547 28.220109 40.988281 27.957547 40.988281 27.685547 L 40.980469 21.984375 C 40.980469 21.424375 40.52875 20.968844 39.96875 20.964844 L 38.970703 20.957031 L 38.970703 13.308594 C 38.972003 13.284864 38.973409 13.264292 38.974609 13.232422 C 38.978209 13.135982 38.981416 13.002402 38.978516 12.839844 C 38.978125 12.817974 38.971303 12.774913 38.970703 12.751953 L 38.970703 10.857422 L 38.720703 10.982422 C 38.512502 9.992233 38.151284 8.8294196 37.361328 7.6152344 C 35.500127 4.7545125 31.494171 2.0820314 23.986328 2.0820312 z M 23.986328 5.0820312 C 30.817485 5.0820312 33.552608 7.261425 34.847656 9.2519531 C 35.495181 10.247217 35.777595 11.250469 35.896484 12.001953 C 35.955924 12.377695 35.974846 12.689206 35.978516 12.894531 C 35.980316 12.997194 35.978326 13.073557 35.976562 13.119141 C 35.975704 13.141931 35.975109 13.156393 35.974609 13.164062 L 35.974609 13.177734 L 35.970703 13.283203 L 35.970703 13.691406 C 34.887266 12.58357 33.818211 11.082786 33.566406 9.734375 A 1.50015 1.50015 0 0 0 32.070312 8.5097656 A 1.50015 1.50015 0 0 0 30.832031 9.1953125 C 29.950683 10.561644 29.362105 10.935148 28.724609 11.142578 C 28.087113 11.350008 27.18392 11.331226 25.875 11.396484 C 24.754137 11.452164 23.544781 11.776213 22.476562 12.5 C 21.826048 12.940766 21.317779 13.646799 20.958984 14.455078 C 19.68398 14.326186 18.828817 13.86686 18.306641 13.246094 C 17.650259 12.465783 17.451172 11.683594 17.451172 11.683594 A 1.50015 1.50015 0 0 0 14.755859 11.195312 C 13.853877 12.511935 12.929774 13.605058 12.005859 14.394531 L 12.005859 13.21875 L 12 13.152344 C 12 13.152344 11.832218 11.240259 13.126953 9.25 C 14.421688 7.2597412 17.155136 5.0820312 23.986328 5.0820312 z M 31.654297 12.810547 C 32.303494 13.977882 33.070212 15.023621 33.853516 15.820312 C 34.806883 16.789976 35.546107 17.356603 35.970703 17.667969 L 35.970703 19.513672 C 34.358476 18.164976 32.021157 17.631189 29.804688 18.3125 L 23.986328 20.138672 L 18.164062 18.310547 C 15.952023 17.631591 13.617663 18.164503 12.005859 19.511719 L 12.005859 17.992188 C 13.450432 17.250248 14.634832 16.05387 15.732422 14.722656 C 15.846207 14.884045 15.876111 15.016524 16.011719 15.177734 C 17.137587 16.516174 19.226465 17.813247 22.148438 17.572266 A 1.50015 1.50015 0 0 0 23.525391 16.023438 C 23.508371 15.546841 23.676125 15.310385 24.160156 14.982422 C 24.644188 14.654459 25.433299 14.421895 26.023438 14.392578 C 27.161517 14.335838 28.32984 14.424458 29.652344 13.994141 C 30.341122 13.770024 31.010776 13.369255 31.654297 12.810547 z M 29.482422 22.986328 C 31.070422 22.986328 32.417359 23.938391 32.943359 25.275391 C 33.006359 25.434391 32.986578 25.614812 32.892578 25.757812 C 32.798578 25.899812 32.643563 25.984375 32.476562 25.984375 L 26.490234 25.984375 C 26.323234 25.984375 26.165266 25.899812 26.072266 25.757812 C 25.979266 25.615813 25.961437 25.434391 26.023438 25.275391 C 26.549437 23.938391 27.894422 22.986328 29.482422 22.986328 z M 18.476562 23.009766 C 20.078563 23.009766 21.435797 23.95525 21.966797 25.28125 C 22.030797 25.43925 22.011969 25.618766 21.917969 25.759766 C 21.823969 25.900766 21.665094 25.984375 21.496094 25.984375 L 15.458984 25.984375 C 15.289984 25.984375 15.131109 25.900766 15.037109 25.759766 C 14.943109 25.618766 14.925281 25.43925 14.988281 25.28125 C 15.519281 23.95525 16.874563 23.009766 18.476562 23.009766 z M 12.005859 28.154297 C 12.630122 28.682446 13.36746 29.090019 14.193359 29.34375 L 22.070312 31.761719 C 22.835313 31.937719 23.478328 32.027344 23.986328 32.027344 C 24.494328 32.027344 25.138656 31.938141 25.972656 31.744141 L 33.779297 29.34375 C 34.606093 29.089743 35.345894 28.683289 35.970703 28.154297 L 35.970703 34.412109 C 35.970703 35.002728 35.853049 35.309789 35.341797 35.695312 L 35.332031 35.701172 L 27.970703 41.431641 C 27.404099 41.757722 26.787411 41.96875 26.316406 41.96875 L 23.988281 41.96875 L 21.658203 41.96875 C 20.898611 41.96875 20.440212 41.797839 20.199219 41.585938 L 20.164062 41.556641 L 12.716797 35.757812 C 12.236191 35.333042 12.005859 34.874303 12.005859 34.412109 L 12.005859 28.154297 z M 24.089844 34.984375 C 22.587629 34.973025 21.061624 35.327245 19.5625 36.080078 A 1.0001 1.0001 0 1 0 20.458984 37.867188 C 22.960736 36.610853 25.2381 36.686459 27.570312 37.865234 A 1.0001258 1.0001258 0 0 0 28.472656 36.080078 C 27.070763 35.371489 25.592058 34.995729 24.089844 34.984375 z"/></svg>
