<?xml version="1.0" encoding="iso-8859-1"?>
<!-- Generator: Adobe Illustrator 25.2.3, SVG Export Plug-In . SVG Version: 6.00 Build 0)  -->
<svg data-color="monochrome" version="1.1" id="Layer_1" xmlns="http://www.w3.org/2000/svg" xmlns:xlink="http://www.w3.org/1999/xlink" x="0px" y="0px"
	 viewBox="0 0 48 48" style="enable-background:new 0 0 48 48;" xml:space="preserve">
<path style="fill:none;stroke:#000000;stroke-width:3;stroke-miterlimit:10;" d="M23.987,3.582c-14.339,0-13.481,9.702-13.481,9.702
	c0,3.989,0,14.014,0,14.014v7.115c0,0.97,0.49,1.833,1.226,2.479l7.476,5.821c0.613,0.539,1.471,0.755,2.451,0.755h2.329h2.329
	c0.858,0,1.716-0.323,2.451-0.755l7.476-5.821c0.858-0.647,1.226-1.509,1.226-2.479v-8.193c0,0,0-8.948,0-12.936
	C37.468,13.285,38.326,3.582,23.987,3.582z"/>
<path style="fill:none;stroke:#000000;stroke-width:2;stroke-linecap:round;stroke-miterlimit:10;" d="M20.011,36.973
	c2.75-1.381,5.442-1.298,8.01,0"/>
<path d="M37.954,20.95l2.015,0.015c0.56,0.004,1.012,0.459,1.012,1.019l0.007,5.702c0,0.272-0.108,0.534-0.302,0.726l-2.756,2.734
	L37.954,20.95z"/>
<path d="M9.996,21.001l-2.015,0.016c-0.56,0.004-1.012,0.459-1.012,1.019l-0.007,5.702c0,0.272,0.108,0.534,0.302,0.726l2.756,2.734
	L9.996,21.001z"/>
<path style="fill:none;stroke:#000000;stroke-width:3;stroke-linejoin:round;stroke-miterlimit:10;" d="M10.628,16.965
	c2.052-0.724,3.778-2.604,5.366-4.922c0,0,1.097,4.441,6.032,4.034c-0.074-2.072,2.212-3.097,3.923-3.182
	c2.447-0.122,4.144,0.213,6.143-2.886c0.693,3.711,5.144,6.735,5.144,6.735"/>
<path d="M37.68,21.927c-1.083-2.995-4.613-4.617-7.876-3.614l-5.817,1.826l-5.822-1.828c-3.258-1-6.788,0.621-7.871,3.616
	c-0.522,1.446-0.431,3.003,0.258,4.383c0.728,1.458,2.021,2.535,3.642,3.033l7.876,2.419c0.765,0.176,1.409,0.266,1.917,0.266
	s1.152-0.09,1.986-0.284l7.807-2.4c1.621-0.498,2.915-1.575,3.642-3.033C38.111,24.93,38.202,23.373,37.68,21.927z M21.917,25.759
	c-0.094,0.141-0.252,0.225-0.421,0.225h-6.037c-0.169,0-0.327-0.084-0.421-0.225c-0.094-0.141-0.113-0.32-0.05-0.478
	c0.531-1.326,1.887-2.271,3.489-2.271c1.602,0,2.958,0.945,3.489,2.271C22.03,25.439,22.011,25.618,21.917,25.759z M32.893,25.758
	c-0.094,0.142-0.25,0.227-0.417,0.227H26.49c-0.167,0-0.324-0.085-0.417-0.227s-0.112-0.323-0.05-0.482
	c0.526-1.337,1.872-2.29,3.46-2.29s2.934,0.953,3.46,2.29C33.006,25.435,32.987,25.615,32.893,25.758z"/>
</svg>
