<svg data-color="monochrome" xmlns="http://www.w3.org/2000/svg"  viewBox="0 0 48 48" width="48px" height="48px"><path d="M 38.330078 0.05078125 A 1.0001 1.0001 0 0 0 37.478516 1.4960938 C 37.845007 2.2290774 38.046806 3.587967 38.011719 4.9746094 C 37.976689 6.3590184 37.730256 7.7894205 37.425781 8.7050781 C 37.311569 9.0280946 37.205232 9.3035044 37.099609 9.5742188 C 36.508511 8.4888215 35.800546 7.5203189 34.947266 6.703125 C 32.248298 4.1183014 28.430843 3.03125 24.025391 3.03125 C 19.619467 3.03125 15.804632 4.1174652 13.105469 6.6875 C 12.243665 7.5080745 11.52838 8.4826381 10.933594 9.5742188 C 10.830107 9.3084786 10.724965 9.0402747 10.613281 8.7246094 C 10.61297 8.7236754 10.613592 8.7216431 10.613281 8.7207031 C 10.308552 7.8051249 10.060442 6.373509 10.025391 4.9882812 C 9.9903031 3.6016389 10.192102 2.2427493 10.558594 1.5097656 A 1.0001 1.0001 0 0 0 9.5976562 0.064453125 A 1.0001 1.0001 0 0 0 9.0527344 0.27148438 C 6.3567142 2.3496666 5.4058191 5.48442 5.1796875 8.21875 C 5.0734271 9.5036258 5.1350186 10.677265 5.2421875 11.695312 C 4.8922792 11.417874 4.7253216 11.317586 4.3847656 11.035156 C 3.2837957 10.122099 2.3183594 9.2851563 2.3183594 9.2851562 A 1.0001 1.0001 0 0 0 0.6640625 10.042969 C 0.6717355 14.63556 1.3909582 17.734122 2.1679688 19.728516 C 2.396615 20.315394 2.610224 20.623954 2.8320312 21.029297 C 2.2410181 21.025297 1.6513646 21.032797 1.0371094 21.029297 A 1.0001 1.0001 0 0 0 0.046875 22.210938 C 0.39151704 24.076757 1.6829253 25.653804 2.8339844 26.847656 C 3.4748809 27.51238 3.6546361 27.607992 4.078125 27.958984 C 3.634407 28.363882 3.1514544 28.890953 2.7851562 29.5625 A 1.0001 1.0001 0 0 0 3.109375 30.873047 C 4.8653905 32.043724 6.6640625 32.041016 7.6640625 32.041016 L 8.9980469 32.041016 L 8.9980469 37.257812 C 8.9980469 39.10564 9.9273296 40.7502 11.011719 42.21875 C 12.096108 43.6873 13.390604 44.949379 14.546875 45.779297 A 1.50015 1.50015 0 0 0 16.921875 44.560547 L 16.921875 43.505859 L 19.175781 45.923828 A 1.50015 1.50015 0 0 0 19.21875 45.96875 C 20.04048 46.779922 21.144683 47.048828 22.138672 47.048828 L 25.591797 47.048828 C 26.668993 47.048828 27.564013 46.62904 28.283203 46.154297 A 1.50015 1.50015 0 0 0 28.548828 45.929688 L 30.990234 43.333984 L 30.990234 44.560547 A 1.50015 1.50015 0 0 0 33.40625 45.75 C 34.505597 44.904776 35.829117 43.657173 36.945312 42.224609 C 38.061509 40.792046 39.050781 39.208976 39.050781 37.359375 L 39.050781 32.027344 L 40.373047 32.027344 C 41.373047 32.027344 43.171719 32.030044 44.927734 30.859375 A 1.0001 1.0001 0 0 0 45.25 29.548828 C 44.883707 28.87729 44.402698 28.350209 43.958984 27.945312 C 44.382565 27.594317 44.562141 27.498722 45.203125 26.833984 C 46.354341 25.640106 47.646166 24.063368 47.990234 22.197266 A 1.0001 1.0001 0 0 0 47 21.015625 C 46.386908 21.019125 45.797526 21.011625 45.207031 21.015625 C 45.428726 20.610463 45.640629 20.301337 45.869141 19.714844 C 46.646165 17.720547 47.365374 14.622377 47.373047 10.029297 A 1.0001 1.0001 0 0 0 45.716797 9.2714844 C 45.716797 9.2714844 44.75312 10.108361 43.652344 11.021484 C 43.311848 11.303935 43.144855 11.404219 42.794922 11.681641 C 42.902091 10.663593 42.963682 9.489954 42.857422 8.2050781 C 42.63129 5.4707481 41.680395 2.3359947 38.984375 0.2578125 A 1.0001 1.0001 0 0 0 38.330078 0.05078125 z M 39.996094 4.7578125 C 40.500158 5.9026465 40.762155 7.1482948 40.863281 8.3710938 C 41.06215 10.775764 40.616765 13.054951 40.414062 13.744141 A 1.0001 1.0001 0 0 0 41.865234 14.898438 C 42.654955 14.452844 43.808714 13.490424 44.929688 12.560547 C 45.068663 12.445263 45.05645 12.451176 45.189453 12.339844 C 44.981818 15.300753 44.537616 17.623486 44.005859 18.988281 C 43.668747 19.853508 43.332793 20.440523 43.087891 20.800781 C 42.965439 20.98091 42.865586 21.10587 42.804688 21.173828 C 42.781987 21.199158 42.773455 21.207104 42.765625 21.214844 A 1.0001 1.0001 0 0 0 43.332031 23.015625 C 44.096125 23.039165 44.784258 23.022325 45.492188 23.015625 C 45.052031 23.859934 44.459022 24.724194 43.763672 25.445312 C 42.735888 26.511184 41.777344 27.224609 41.777344 27.224609 A 1.0001 1.0001 0 0 0 42.056641 28.976562 C 41.926093 28.933042 42.048741 28.972861 42.162109 29.050781 C 42.275502 29.128671 42.428131 29.248468 42.589844 29.394531 C 42.654084 29.452561 42.704012 29.549071 42.769531 29.615234 C 41.912034 29.914093 41.084032 30.027344 40.373047 30.027344 L 39.050781 30.027344 L 39.050781 18.414062 L 39.050781 18.412109 C 39.050851 16.034971 38.741584 13.931312 38.160156 12.085938 C 38.496014 11.435049 38.871348 10.620373 39.316406 9.359375 A 1.0001 1.0001 0 0 0 39.322266 9.34375 C 39.71711 8.1592177 39.969853 6.6027483 40.009766 5.0253906 C 40.012066 4.9347456 39.995104 4.8484125 39.996094 4.7578125 z M 8.0410156 4.7714844 C 8.0420045 4.8620844 8.0250498 4.9484177 8.0273438 5.0390625 C 8.0672568 6.6164202 8.3199995 8.1728895 8.7148438 9.3574219 A 1.0001 1.0001 0 0 0 8.7207031 9.3730469 C 9.1643103 10.629934 9.5378885 11.443341 9.8730469 12.09375 C 9.3027472 13.91233 8.9980469 15.979566 8.9980469 18.310547 L 8.9980469 30.041016 L 7.6640625 30.041016 C 6.9530772 30.041016 6.1250754 29.927764 5.2675781 29.628906 C 5.3330411 29.562806 5.3830764 29.466181 5.4472656 29.408203 C 5.6089783 29.26214 5.7616077 29.142339 5.875 29.064453 C 5.9883923 28.986563 6.1110168 28.946719 5.9804688 28.990234 A 1.0001 1.0001 0 0 0 6.2597656 27.238281 C 6.2597656 27.238281 5.3011284 26.526835 4.2734375 25.460938 C 3.5781501 24.739801 2.9852449 23.87371 2.5449219 23.029297 C 3.2527695 23.035997 3.9409934 23.052837 4.7050781 23.029297 A 1.0001 1.0001 0 0 0 5.2851562 21.242188 C 5.2850678 21.242106 5.2798569 21.236928 5.2792969 21.236328 C 5.2747069 21.231928 5.2595549 21.21779 5.2324219 21.1875 C 5.1715142 21.119558 5.0716798 20.994629 4.9492188 20.814453 C 4.7042967 20.454101 4.3683697 19.867256 4.03125 19.001953 C 3.4993631 17.636731 3.0551877 15.313299 2.8476562 12.351562 C 2.9816141 12.463667 2.9693455 12.458089 3.109375 12.574219 C 4.2304051 13.503912 5.3842562 14.466595 6.171875 14.912109 A 1.0001 1.0001 0 0 0 7.6230469 13.759766 C 7.4203442 13.070576 6.9749597 10.789436 7.1738281 8.3847656 C 7.2749547 7.1619667 7.5369516 5.9163184 8.0410156 4.7714844 z M 24.025391 6.03125 C 27.943938 6.03125 30.890265 6.9702142 32.873047 8.8691406 C 34.855829 10.768067 36.051254 13.762255 36.050781 18.412109 L 36.050781 21.009766 C 33.685345 21.205318 31.578392 21.929223 29.685547 22.59375 C 27.535213 23.348674 25.656004 24.001055 24.03125 24.003906 A 1.50015 1.50015 0 0 0 24.029297 24.003906 C 22.391829 24.007106 20.535902 23.335005 18.396484 22.5625 C 16.508318 21.880717 14.394367 21.143439 11.998047 20.990234 L 11.998047 18.310547 C 11.998047 13.714447 13.192695 10.74759 15.175781 8.859375 C 17.158868 6.9711598 20.106314 6.03125 24.025391 6.03125 z M 11.998047 24 C 13.492614 24.124167 14.940615 24.542953 16.398438 25.044922 C 16.189988 25.049841 15.911838 25.049881 15.738281 25.056641 C 15.515281 25.056641 15.304969 25.158078 15.167969 25.330078 C 15.030969 25.502078 14.983063 25.725547 15.039062 25.935547 C 15.441063 27.144547 16.608375 28.019531 17.984375 28.019531 C 19.134244 28.019531 20.130703 27.404994 20.691406 26.505859 C 21.7625 26.801635 22.869096 27.006216 24.035156 27.003906 C 25.173521 27.001932 26.263192 26.806804 27.324219 26.523438 C 27.860671 27.415391 28.847367 28.019531 29.986328 28.019531 C 31.362328 28.019531 32.530516 27.144266 32.978516 25.947266 C 33.038516 25.722266 32.987797 25.484781 32.841797 25.300781 C 32.695797 25.117781 32.470422 25.010719 32.232422 25.011719 C 32.142564 25.011719 31.990613 25.011698 31.890625 25.011719 C 33.268925 24.555041 34.644778 24.172833 36.050781 24.025391 L 36.050781 37.359375 C 36.050781 37.940774 35.499632 39.200673 34.580078 40.380859 C 34.399404 40.612743 34.188313 40.743399 33.990234 40.96875 L 33.990234 39.869141 A 1.50015 1.50015 0 0 0 33.990234 39.125 L 33.990234 31.589844 A 1.50015 1.50015 0 0 0 32.449219 30.089844 C 32.449219 30.089844 28.176124 30.294572 24.025391 33.005859 C 19.828643 30.274547 15.488281 30.001953 15.488281 30.001953 A 1.50015 1.50015 0 0 0 13.921875 31.5 L 13.921875 40.9375 C 13.755637 40.737725 13.578262 40.642046 13.425781 40.435547 C 12.54342 39.240596 11.998047 37.942986 11.998047 37.257812 L 11.998047 24 z M 16.921875 33.275391 C 18.384425 33.518394 20.618078 34.053309 23.125 35.931641 A 1.50015 1.50015 0 0 0 24.929688 35.927734 C 27.388523 34.06884 29.560467 33.563593 30.990234 33.341797 L 30.990234 38.953125 L 26.542969 43.683594 C 26.176597 43.905415 25.801628 44.048828 25.591797 44.048828 L 22.138672 44.048828 C 21.643195 44.048828 21.44269 43.946117 21.330078 43.835938 L 16.921875 39.103516 L 16.921875 33.275391 z M 24.027344 38.080078 C 22.817456 38.084278 21.607112 38.460985 20.480469 39.193359 A 1.000319 1.000319 0 1 0 21.570312 40.871094 C 23.329027 39.727842 24.733605 39.700859 26.453125 40.861328 A 1.0002642 1.0002642 0 1 0 27.572266 39.203125 C 26.448026 38.444376 25.237231 38.075869 24.027344 38.080078 z"/></svg>
